<?xml version="1.0" encoding="UTF-8"?>
<svg xmlns="http://www.w3.org/2000/svg" version="1.1" viewBox="0 0 1920 1080">
  <g>
    <g>
      <g>
        <circle cx="725.52" cy="486.52" r="66.52" fill="#f04e24"/>
        <path d="M689.82,454.23h17.64l18.1,44.29,18.01-44.29h17.64l-27.65,64.57h-16.1l-27.65-64.57Z" fill="#100b0a"/>
      </g>
      <g>
        <circle cx="881.84" cy="486.52" r="66.52" fill="#f04e24"/>
        <path d="M856.48,454.24h16.19v49.2h41.2v15.37h-57.38v-64.57Z" fill="#100b0a"/>
      </g>
      <g>
        <circle cx="1038.16" cy="486.71" r="66.52" fill="#f04e24"/>
        <path d="M1030.07,454.43h16.19l27.55,64.57h-16.64l-5.09-11.1h-27.92l-5,11.1h-16.64l27.55-64.57ZM1045.08,492.53l-6.91-15.64-7,15.64h13.91Z" fill="#100b0a"/>
      </g>
      <g>
        <circle cx="1194.48" cy="486.71" r="66.52" fill="#f04e24"/>
        <path d="M1161.06,454.43h16.19v22.92h34.47v-22.92h16.19v64.57h-16.19v-26.28h-34.47v26.28h-16.19v-64.57Z" fill="#100b0a"/>
      </g>
    </g>
    <g fill="#e2edef">
      <path d="M666.16,602.97h52.34v13.42h-38.2v7.62h37.57v12.79h-37.57v9.13h38.2v13.42h-52.34v-56.39Z"/>
      <path d="M730.08,602.97h18.9l33.36,40.75v-40.75h14.14v56.39h-17.71l-34.55-40.83v40.83h-14.14v-56.39Z"/>
      <path d="M823.05,616.4h-20.97v-13.42h56.07v13.42h-20.97v42.97h-14.14v-42.97Z"/>
      <path d="M863.75,602.97h52.34v13.42h-38.2v7.62h37.57v12.79h-37.57v9.13h38.2v13.42h-52.34v-56.39Z"/>
      <path d="M927.66,602.97h33.84c2.33,0,4.59.52,6.79,1.55,2.2,1.03,4.17,2.5,5.92,4.41,1.75,1.91,3.15,4.18,4.21,6.83,1.06,2.65,1.59,5.61,1.59,8.9,0,4.29-.9,8.02-2.7,11.2-1.8,3.18-4.05,5.64-6.75,7.39l12.07,16.12h-17.55l-9.37-13.26h-13.9v13.26h-14.14v-56.39ZM956.02,633.31c1.16,0,2.29-.19,3.38-.56,1.08-.37,2.06-.91,2.94-1.63s1.58-1.63,2.1-2.74c.53-1.11.79-2.38.79-3.81s-.27-2.71-.79-3.85c-.53-1.14-1.23-2.09-2.1-2.86-.87-.77-1.85-1.36-2.94-1.79-1.09-.42-2.21-.64-3.38-.64h-14.22v17.87h14.22Z"/>
      <path d="M989.54,602.97h33.92c2.28,0,4.53.52,6.75,1.55,2.22,1.03,4.21,2.5,5.96,4.41,1.75,1.91,3.15,4.2,4.21,6.87,1.06,2.67,1.59,5.65,1.59,8.94s-.53,6.18-1.59,8.86c-1.06,2.67-2.46,4.96-4.21,6.87-1.75,1.91-3.73,3.38-5.96,4.41-2.22,1.03-4.5,1.55-6.83,1.55h-19.7v12.95h-14.14v-56.39ZM1017.89,633.71c1.16,0,2.29-.2,3.38-.6,1.08-.4,2.06-.98,2.94-1.75.87-.77,1.58-1.72,2.1-2.86.53-1.14.79-2.42.79-3.85s-.27-2.7-.79-3.81c-.53-1.11-1.23-2.04-2.1-2.78-.87-.74-1.85-1.31-2.94-1.71-1.09-.4-2.21-.6-3.38-.6h-14.22v17.95h14.22Z"/>
      <path d="M1051.02,602.97h33.84c2.33,0,4.59.52,6.79,1.55,2.2,1.03,4.17,2.5,5.92,4.41,1.75,1.91,3.15,4.18,4.21,6.83,1.06,2.65,1.59,5.61,1.59,8.9,0,4.29-.9,8.02-2.7,11.2-1.8,3.18-4.05,5.64-6.75,7.39l12.07,16.12h-17.55l-9.37-13.26h-13.9v13.26h-14.14v-56.39ZM1079.38,633.31c1.16,0,2.29-.19,3.38-.56,1.08-.37,2.06-.91,2.94-1.63s1.58-1.63,2.1-2.74c.53-1.11.79-2.38.79-3.81s-.27-2.71-.79-3.85c-.53-1.14-1.23-2.09-2.1-2.86-.87-.77-1.85-1.36-2.94-1.79-1.09-.42-2.21-.64-3.38-.64h-14.22v17.87h14.22Z"/>
      <path d="M1112.85,602.97h14.14v56.39h-14.14v-56.39Z"/>
      <path d="M1166.22,660c-9.53,0-16.79-1.53-21.76-4.61-4.98-3.07-7.44-7.49-7.39-13.26v-1.03h15.01v1.11c.05,1.75,1.08,3.02,3.1,3.81,2.01.79,5.37,1.19,10.09,1.19,2.33,0,4.31-.08,5.96-.24,1.64-.16,2.98-.44,4.01-.83s1.79-.94,2.26-1.63c.48-.69.71-1.59.71-2.7,0-1.69-.54-2.87-1.63-3.53-1.09-.66-3.11-1.02-6.08-1.07l-14.69-.16c-5.88-.05-10.37-1.52-13.46-4.41-3.1-2.89-4.65-6.76-4.65-11.64,0-5.93,2.22-10.46,6.67-13.58,4.45-3.12,10.91-4.69,19.38-4.69,4.13,0,7.88.4,11.24,1.19,3.36.79,6.22,1.92,8.58,3.38,2.36,1.46,4.2,3.24,5.52,5.36,1.32,2.12,2.04,4.5,2.14,7.15v.95h-14.53v-.87c0-1.48-.97-2.58-2.9-3.3-1.93-.72-5.15-1.07-9.65-1.07-2.28,0-4.21.08-5.8.24-1.59.16-2.86.44-3.81.83-.95.4-1.64.93-2.06,1.59-.42.66-.64,1.47-.64,2.42,0,1.22.46,2.13,1.39,2.74.93.61,2.77.97,5.52,1.07l16.28.08c5.88.11,10.25,1.56,13.1,4.37,2.86,2.81,4.29,6.75,4.29,11.83,0,6.41-2.2,11.23-6.59,14.46-4.4,3.23-10.94,4.85-19.62,4.85Z"/>
      <path d="M1202.51,602.97h52.34v13.42h-38.2v7.62h37.57v12.79h-37.57v9.13h38.2v13.42h-52.34v-56.39Z"/>
    </g>
  </g>
</svg>
